<?xml version="1.0" encoding="UTF-8"?>
<svg id="Layer_1" data-name="Layer 1" xmlns="http://www.w3.org/2000/svg" viewBox="0 0 120 120">
  <defs>
    <style>
      .cls-1 {
        stroke-width: 0px;
      }

      .cls-2 {
        fill: none;
        stroke: #62bb46;
        stroke-miterlimit: 10;
        stroke-width: 2px;
      }
    </style>
  </defs>
  <path class="cls-1" d="m97.03,60.76c-28.78,2.99-33.28,7.49-36.27,36.27-.1.92-1.43.92-1.52,0-2.99-28.78-7.49-33.28-36.27-36.27-.92-.1-.92-1.43,0-1.52,28.78-2.99,33.28-7.49,36.27-36.27.1-.92,1.43-.92,1.52,0,2.99,28.78,7.49,33.28,36.27,36.27.92.1.92,1.43,0,1.52Z"/>
  <path class="cls-2" d="m116.86,60c-31.32,14.11-42.75,25.55-56.86,56.86-14.11-31.32-25.55-42.75-56.86-56.86,31.32-14.11,42.75-25.55,56.86-56.86,14.11,31.32,25.55,42.75,56.86,56.86Z"/>
</svg>