<?xml version="1.0" encoding="UTF-8"?>
<svg id="Layer_2" data-name="Layer 2" xmlns="http://www.w3.org/2000/svg" viewBox="0 0 126.56 1025.68">
  <defs>
    <style>
      .cls-1, .cls-2, .cls-3 {
        stroke-width: 0px;
      }

      .cls-2 {
        fill: #fff;
      }

      .cls-4 {
        stroke: #62bb46;
      }

      .cls-4, .cls-5, .cls-6 {
        fill: none;
        stroke-miterlimit: 10;
        stroke-width: 2px;
      }

      .cls-5 {
        stroke: #d6e03e;
      }

      .cls-3 {
        fill: #f79421;
      }

      .cls-6 {
        stroke: #f79421;
      }
    </style>
  </defs>
  <g id="Layer_1-2" data-name="Layer 1">
    <path class="cls-1" d="m103.23,38.48c-28.78,2.99-33.28,7.49-36.27,36.27-.1.92-1.43.92-1.52,0-2.99-28.78-7.49-33.28-36.27-36.27-.92-.1-.92-1.43,0-1.52,28.78-2.99,33.28-7.49,36.27-36.27.1-.92,1.43-.92,1.52,0,2.99,28.78,7.49,33.28,36.27,36.27.92.1.92,1.43,0,1.52Z"/>
    <path class="cls-4" d="m123.06,294.29c-31.32,14.11-42.75,25.55-56.86,56.86-14.11-31.32-25.55-42.75-56.86-56.86,31.32-14.11,42.75-25.55,56.86-56.86,14.11,31.32,25.55,42.75,56.86,56.86Z"/>
    <g>
      <path class="cls-1" d="m102.16,558.55c-28.78,2.99-33.28,7.49-36.27,36.27-.1.92-1.43.92-1.52,0-2.99-28.78-7.49-33.28-36.27-36.27-.92-.1-.92-1.43,0-1.52,28.78-2.99,33.28-7.49,36.27-36.27.1-.92,1.43-.92,1.52,0,2.99,28.78,7.49,33.28,36.27,36.27.92.1.92,1.43,0,1.52Z"/>
      <path class="cls-4" d="m121.99,557.79c-31.32,14.11-42.75,25.55-56.86,56.86-14.11-31.32-25.55-42.75-56.86-56.86,31.32-14.11,42.75-25.55,56.86-56.86,14.11,31.32,25.55,42.75,56.86,56.86Z"/>
    </g>
    <g>
      <path class="cls-2" d="m96.33,967.14c-28.78,2.99-33.28,7.49-36.27,36.27-.1.92-1.43.92-1.52,0-2.99-28.78-7.49-33.28-36.27-36.27-.92-.1-.92-1.43,0-1.52,28.78-2.99,33.28-7.49,36.27-36.27.1-.92,1.43-.92,1.52,0,2.99,28.78,7.49,33.28,36.27,36.27.92.1.92,1.43,0,1.52Z"/>
      <path class="cls-4" d="m116.16,966.38c-31.32,14.11-42.75,25.55-56.86,56.86-14.11-31.32-25.55-42.75-56.86-56.86,31.32-14.11,42.75-25.55,56.86-56.86,14.11,31.32,25.55,42.75,56.86,56.86Z"/>
    </g>
    <path class="cls-5" d="m91.74,166.22c31.32,31.4,5.86,56.86-25.55,25.55-31.4,31.32-56.86,5.86-25.55-25.55-31.32-31.4-5.86-56.86,25.55-25.55,31.4-31.32,56.86-5.86,25.55,25.55Z"/>
    <g>
      <ellipse class="cls-6" cx="66.2" cy="427.17" rx="47.28" ry="19.25"/>
      <ellipse class="cls-6" cx="66.2" cy="427.17" rx="55.36" ry="16.44" transform="translate(-319.06 231.13) rotate(-54.22)"/>
      <ellipse class="cls-6" cx="66.2" cy="424.91" rx="16.44" ry="55.36" transform="translate(-235.93 118.89) rotate(-35.78)"/>
    </g>
    <g>
      <path class="cls-5" d="m92.81,700.08c31.32,31.4,5.86,56.86-25.55,25.55-31.4,31.32-56.86,5.86-25.55-25.55-31.32-31.4-5.86-56.86,25.55-25.55,31.4-31.32,56.86-5.86,25.55,25.55Z"/>
      <path class="cls-4" d="m124.13,700.08c-31.32,14.11-42.75,25.55-56.86,56.86-14.11-31.32-25.55-42.75-56.86-56.86,31.32-14.11,42.75-25.55,56.86-56.86,14.11,31.32,25.55,42.75,56.86,56.86Z"/>
    </g>
    <g>
      <ellipse class="cls-3" cx="59.3" cy="827.83" rx="47.28" ry="19.25"/>
      <ellipse class="cls-3" cx="59.3" cy="827.83" rx="55.36" ry="16.44" transform="translate(-646.98 391.95) rotate(-54.22)"/>
      <ellipse class="cls-3" cx="59.3" cy="825.57" rx="16.44" ry="55.36" transform="translate(-471.48 190.46) rotate(-35.78)"/>
    </g>
  </g>
</svg>